<svg width="47" height="35" viewBox="0 0 47 35" fill="none" xmlns="http://www.w3.org/2000/svg">
<path d="M41.8606 8.77811C40.6853 8.76623 39.5533 9.22046 38.7121 10.0412C37.8708 10.862 37.3888 11.9825 37.3718 13.1577C37.3748 13.7761 37.511 14.3865 37.7711 14.9476C38.0312 15.5086 38.4091 16.007 38.8791 16.4088L33.2173 18.3945L25.1605 9.03899C26.0255 8.75036 26.7789 8.1992 27.3157 7.46213C27.8526 6.72506 28.1462 5.8387 28.1556 4.92689C28.1312 3.75276 27.6477 2.63501 26.8087 1.81326C25.9697 0.99151 24.8421 0.53125 23.6677 0.53125C22.4933 0.53125 21.3657 0.99151 20.5267 1.81326C19.6877 2.63501 19.2042 3.75276 19.1798 4.92689C19.1892 5.82967 19.4767 6.7077 20.0032 7.44114C20.5297 8.17457 21.2695 8.7279 22.1219 9.02555L14.0524 18.3973L8.39267 16.4119C8.86229 16.0099 9.23979 15.5112 9.49954 14.9502C9.75929 14.3892 9.89517 13.779 9.89794 13.1608C9.92019 12.3137 9.70223 11.4776 9.26932 10.7491C8.83641 10.0207 8.20619 9.42955 7.4515 9.04418C6.69682 8.65881 5.84852 8.49478 5.0046 8.57124C4.16067 8.6477 3.35561 8.96159 2.68247 9.47631C2.00933 9.99104 1.49561 10.6857 1.20067 11.4801C0.905725 12.2745 0.841609 13.1361 1.01574 13.9654C1.18987 14.7947 1.5951 15.5577 2.18464 16.1664C2.77419 16.775 3.524 17.2045 4.34732 17.405V29.2801C4.35443 29.3594 4.37056 29.4375 4.39555 29.513C4.36373 29.6354 4.34757 29.7615 4.34732 29.888C4.34732 34.1507 21.66 34.2763 23.6339 34.2763C25.6077 34.2763 42.9205 34.1517 42.9205 29.888C42.9198 29.7615 42.9035 29.6355 42.8722 29.513C42.8989 29.4379 42.9152 29.3596 42.9205 29.2801V17.405C43.9822 17.1729 44.9192 16.553 45.5479 15.6665C46.1766 14.7801 46.4518 13.6908 46.3197 12.6121C46.1876 11.5334 45.6576 10.5427 44.8336 9.83415C44.0096 9.12556 42.9508 8.74998 41.8645 8.78094L41.8606 8.77811ZM21.3595 4.92901C21.3484 4.47085 21.4741 4.01972 21.7205 3.63332C21.967 3.24692 22.3229 2.94272 22.7431 2.75961C23.1632 2.57651 23.6284 2.52283 24.0792 2.60535C24.53 2.68787 24.946 2.90283 25.2741 3.22288C25.6021 3.54294 25.8273 3.95341 25.9208 4.40205C26.0144 4.85069 25.9722 5.31711 25.7995 5.74162C25.6268 6.16613 25.3315 6.52952 24.9513 6.78539C24.571 7.04126 24.1232 7.17799 23.6649 7.17813C23.0613 7.18433 22.4797 6.95124 22.0477 6.52969C21.6156 6.10814 21.3682 5.53258 21.3595 4.92901ZM14.0263 20.6542C14.236 20.7266 14.4624 20.7351 14.6768 20.6783C14.8912 20.6215 15.0838 20.502 15.2301 20.3353L23.6359 10.5772L32.0415 20.3353C32.1875 20.5021 32.38 20.6216 32.5943 20.6785C32.8085 20.7355 33.0348 20.7274 33.2443 20.6552L40.7399 18.0225V27.6233C36.0202 25.5731 25.1759 25.4976 23.6387 25.4976C22.1015 25.4976 11.2534 25.5741 6.53759 27.6233V18.0225L14.0263 20.6542ZM23.6329 32.1409C15.2273 32.1409 9.866 31.1643 7.63608 30.3421C7.29689 30.2286 6.97252 30.0747 6.66991 29.884C7.36749 29.3806 9.62741 28.6937 13.4003 28.2107C20.1977 27.4332 27.0614 27.4332 33.8588 28.2107C37.6269 28.6937 39.8926 29.3806 40.5883 29.884C40.2881 30.0761 39.9652 30.23 39.6269 30.3421C37.4028 31.1624 32.0463 32.1409 23.6329 32.1409ZM3.10481 13.1577C3.09406 12.6996 3.22009 12.2489 3.46677 11.8627C3.71345 11.4766 4.06961 11.1725 4.48979 10.9897C4.90996 10.8069 5.37501 10.7534 5.8257 10.8362C6.27638 10.9189 6.69225 11.1343 7.02008 11.4544C7.34791 11.7745 7.57285 12.185 7.66627 12.6336C7.7597 13.0822 7.71734 13.5485 7.54456 13.9729C7.37178 14.3973 7.0764 14.7607 6.69621 15.0164C6.31603 15.2722 5.86829 15.4088 5.41008 15.4089C4.80607 15.4154 4.2241 15.1821 3.79193 14.76C3.35977 14.338 3.11271 13.7617 3.10481 13.1577ZM41.8606 15.4089C41.4181 15.3981 40.9887 15.2569 40.626 15.0032C40.2633 14.7495 39.9835 14.3945 39.8215 13.9826C39.6596 13.5706 39.6227 13.1201 39.7156 12.6874C39.8085 12.2546 40.027 11.8587 40.3436 11.5495C40.6603 11.2402 41.0612 11.0312 41.496 10.9487C41.9309 10.8661 42.3804 10.9136 42.7884 11.0853C43.1964 11.2569 43.5447 11.5453 43.7897 11.9139C44.0348 12.2825 44.1656 12.7151 44.166 13.1577C44.1576 13.7614 43.9102 14.3373 43.4781 14.7591C43.0461 15.1809 42.4644 15.4142 41.8606 15.408V15.4089Z" fill="#F16D7F"/>
</svg>
